<?xml version="1.0" encoding="UTF-8" standalone="no"?><svg xmlns="http://www.w3.org/2000/svg" xmlns:xlink="http://www.w3.org/1999/xlink" fill="#000000" height="99.6" preserveAspectRatio="xMidYMid meet" version="1" viewBox="10.2 10.2 99.6 99.6" width="99.6" zoomAndPan="magnify"><g><g id="change1_1"><circle cx="60" cy="60" fill="#09cb94" r="49.8"/></g><g fill="#ffffff" id="change2_1"><path d="M87.9,59.5c0-0.2,0-0.3-0.1-0.5c0-0.2-0.1-0.3-0.1-0.5c0-0.2-0.1-0.3-0.2-0.5c-0.1-0.2-0.1-0.3-0.2-0.5 c-0.1-0.2-0.2-0.3-0.3-0.4c-0.1-0.2-0.2-0.3-0.3-0.5c-0.1-0.1-0.1-0.1-0.1-0.2L67.5,35c-2-2.3-5.5-2.4-7.7-0.4 c-2.3,2-2.4,5.5-0.4,7.7L75.1,60L59.3,77.7c-2,2.3-1.8,5.7,0.4,7.7c1,0.9,2.3,1.4,3.6,1.4c1.5,0,3-0.6,4.1-1.8l19.1-21.3 c0.1-0.1,0.1-0.1,0.1-0.2c0.1-0.2,0.2-0.3,0.3-0.5c0.1-0.1,0.2-0.3,0.3-0.4c0.1-0.2,0.2-0.3,0.2-0.5c0.1-0.2,0.1-0.3,0.2-0.5 c0-0.2,0.1-0.3,0.1-0.5c0-0.2,0.1-0.3,0.1-0.5c0-0.2,0-0.3,0-0.5C87.9,59.8,87.9,59.7,87.9,59.5z"/><path d="M60.8,63.5c0.1-0.2,0.2-0.3,0.3-0.5c0.1-0.1,0.2-0.3,0.3-0.4c0.1-0.2,0.2-0.3,0.2-0.5 c0.1-0.2,0.1-0.3,0.2-0.5c0-0.2,0.1-0.3,0.1-0.5c0-0.2,0.1-0.3,0.1-0.5c0-0.2,0-0.3,0-0.5c0-0.2,0-0.3,0-0.5c0-0.2,0-0.3-0.1-0.5 c0-0.2-0.1-0.3-0.1-0.5c0-0.2-0.1-0.3-0.2-0.5c-0.1-0.2-0.1-0.3-0.2-0.5c-0.1-0.2-0.2-0.3-0.3-0.4c-0.1-0.2-0.2-0.3-0.3-0.5 c-0.1-0.1-0.1-0.1-0.1-0.2L41.6,35c-2-2.3-5.5-2.4-7.7-0.4c-2.3,2-2.4,5.5-0.4,7.7L49.3,60L33.5,77.7c-2,2.3-1.8,5.7,0.4,7.7 c1,0.9,2.3,1.4,3.6,1.4c1.5,0,3-0.6,4.1-1.8l19.1-21.3C60.8,63.6,60.8,63.5,60.8,63.5z"/></g></g></svg>