<?xml version="1.0" encoding="UTF-8" standalone="no"?><svg xmlns="http://www.w3.org/2000/svg" xmlns:xlink="http://www.w3.org/1999/xlink" fill="#000000" height="689.8" preserveAspectRatio="xMidYMid meet" version="1" viewBox="0.0 0.0 971.7 689.8" width="971.7" zoomAndPan="magnify"><g><g id="change1_1"><rect fill="#252523" height="689.83" rx="79.89" ry="79.89" width="971.7"/></g><g id="change2_1"><rect fill="#09cb94" height="679.83" rx="74.89" ry="74.89" width="961.7" x="5" y="5"/></g><g id="change3_1"><rect fill="#09cb94" height="655.83" rx="62.89" ry="62.89" width="937.7" x="17" y="17"/></g><g id="change4_1"><rect fill="#231f20" height="625.83" rx="47.89" ry="47.89" width="907.7" x="32" y="32"/></g><g id="change5_1"><rect fill="#8e7bb0" height="615.83" rx="42.89" ry="42.89" width="897.7" x="37" y="37"/></g></g><g id="change1_2"><path d="M492.32,672.72c114.88-.43,239.88-3.84,354.3,0,0,0,0,.4,0,.4-59.04,2.15-118.09,2.09-177.15,1.4-43.86-.65-134.1-.2-177.15-1.8h0Z" fill="#252523"/></g><g id="change1_3"><path d="M241.6,652.63c114.88-.43,239.88-3.84,354.3,0,0,0,0,.4,0,.4-59.04,2.15-118.09,2.09-177.15,1.4-43.86-.65-134.1-.2-177.15-1.8h0Z" fill="#252523"/></g><g id="change1_4"><path d="M374.02,36.8c128.93-4.47,262.14-4.37,391.12-.9,0,0,13.04,.39,13.04,.39,0,0,13.04,.51,13.04,.51-102.67,.96-314.55,.96-417.19,0h0Z" fill="#252523"/></g><g id="change1_5"><path d="M18.62,594.06c-1.3-113.49-1.31-240.81,0-354.3,1.31,113.49,1.3,240.81,0,354.3h0Z" fill="#252523"/></g><g id="change1_6"><path d="M953.09,442.4c-1.3-113.49-1.31-240.81,0-354.3,1.31,113.49,1.3,240.81,0,354.3h0Z" fill="#252523"/></g><g id="change1_7"><path d="M117,16.77c180.5-3.32,366.81-3.22,547.34-.67,0,0,18.24,.29,18.24,.29,0,0,18.24,.38,18.24,.38-144.55,.72-439.32,.72-583.83,0h0Z" fill="#252523"/></g><g id="change1_8"><path d="M86.36,672.72c35.4-2.02,71.89-2.82,107.3-3.22,52.58-.37,108.55-.08,160.95,2.32,0,0,8.94,.39,8.94,.39l8.94,.51c-70.01,.96-216.14,.96-286.13,0h0Z" fill="#252523"/></g></svg>