<?xml version="1.0" encoding="UTF-8" standalone="no"?><svg xmlns="http://www.w3.org/2000/svg" xmlns:xlink="http://www.w3.org/1999/xlink" fill="#6baf5f" height="3.5" preserveAspectRatio="xMidYMid meet" version="1" viewBox="10.7 23.8 177.9 3.5" width="177.9" zoomAndPan="magnify"><g id="change1_1"><path d="M188.5,26.165c0.093-0.086,0.041-0.281-0.217-0.243l-0.183,0.331L188.5,26.165z"/><path d="M186.768,25.552c-0.303,0.16-0.652,0.442-0.456,0.746c0.3-0.318,0.372-0.185,0.695-0.564 c0.258-0.039,0.45,0.106,0.406,0.228c0.091-0.085,0.4,0.073,0.539-0.135c-0.335-0.256-0.76-0.267-1.203-0.055 C186.654,25.7,186.746,25.613,186.768,25.552z"/><path d="M161.596,25.036l0.162,0.039C161.714,25.054,161.658,25.042,161.596,25.036z"/><path d="M146,24.855c0.119-0.008,0.168-0.041,0.174-0.071C146.064,24.806,145.973,24.826,146,24.855z"/><path d="M143.337,24.49c0.057,0.011,0.105,0.015,0.157,0.023C143.434,24.482,143.374,24.465,143.337,24.49z"/><path d="M161.596,25.036l-0.417-0.104C161.15,25.04,161.393,25.012,161.596,25.036z"/><path d="M183.297,26.351c0.087-0.016,0.16-0.047,0.226-0.087c-0.072,0.014-0.141,0.026-0.213,0.035 C183.307,26.317,183.303,26.332,183.297,26.351z"/><path d="M168.471,24.768l0.127,0c0.037-0.038,0.072-0.083,0.105-0.135L168.471,24.768z"/><path d="M173.748,24.717c-0.119-0.012-0.161,0.269-0.207,0.392c0.067-0.116,0.156-0.171,0.26-0.193 C173.803,24.863,173.788,24.799,173.748,24.717z"/><path d="M182.114,25.212l0.148-0.039C182.224,25.185,182.159,25.196,182.114,25.212z"/><path d="M164.695,24.707c-0.009-0.042-0.028-0.079-0.048-0.1C164.647,24.642,164.665,24.675,164.695,24.707z"/><path d="M17.116,26.819c0.004-0.02-0.002-0.033,0-0.05C17.085,26.798,17.076,26.818,17.116,26.819z"/><path d="M11,25.427l0.085-0.015c0.009-0.053,0.018-0.106,0.018-0.158L11,25.427z"/><path d="M138.464,24.13c0.009,0.003,0.013,0.003,0.022,0.005C138.614,24.103,138.541,24.109,138.464,24.13z"/><path d="M93.727,24.337c0.507,0.251-0.825,0.323-0.062,0.602C93.594,24.829,94.358,24.5,93.727,24.337z"/><path d="M183.16,26.314c-0.071,0.003-0.144,0.006-0.216,0.003C183.042,26.326,183.109,26.325,183.16,26.314z"/><path d="M93.665,24.939c0,0.001,0,0.002,0,0.002l0.079,0.026C93.711,24.956,93.693,24.948,93.665,24.939z"/><path d="M127.235,24.299c0.023,0.049,0.068,0.087,0.114,0.123C127.346,24.393,127.32,24.358,127.235,24.299z"/><path d="M135.6,24.699l-0.207-0.038C135.475,24.687,135.542,24.695,135.6,24.699z"/><path d="M122.892,24.695c-0.113-0.021-0.151-0.06-0.304-0.022c0.014,0.014,0.028,0.024,0.047,0.034 C122.69,24.669,122.764,24.651,122.892,24.695z"/><path d="M118.371,24.697c0.024,0.022,0.056,0.038,0.083,0.057c0.045-0.006,0.097-0.01,0.143-0.015L118.371,24.697z"/><path d="M30.855,26.684c-0.099-0.079-0.161-0.166-0.209-0.253C30.716,26.631,30.052,26.703,30.855,26.684z"/><path d="M183.294,26.193c-0.026,0.071-0.065,0.106-0.134,0.121c0.052-0.003,0.102-0.009,0.15-0.015 C183.323,26.257,183.326,26.217,183.294,26.193z"/><path d="M122.708,26.913l-0.718-0.042C122.191,26.899,122.452,26.913,122.708,26.913z"/><path d="M63.286,26.644l-0.165,0.034C63.185,26.684,63.244,26.676,63.286,26.644z"/><path d="M119.859,26.913c-0.128-0.099-0.264-0.157-0.404-0.194c-0.03,0.022-0.064,0.04-0.083,0.072L119.859,26.913z"/><path d="M30.645,26.429c0.002,0.001,0.002,0.003,0.002,0.003S30.646,26.43,30.645,26.429z"/><path d="M25.914,27.096c0.684,0.008,0.321-0.362,0.467-0.573c0.817-0.105,0.378,0.272,0.656,0.461 c0.51-0.098,0.901-0.437,1.282-0.423c0.028,0.061,0.102,0.083,0.016,0.159c0.539-0.294,1.601-0.014,2.229-0.383 c0.047,0.033,0.07,0.064,0.082,0.092c-0.102-0.185-0.117-0.373-0.097-0.507c0.307-0.006,0.569-0.233,0.685,0.008 c-0.188-0.007-0.204,0.09-0.292,0.166l0.321-0.105c0.289,0.347-0.439,0.12-0.439,0.377c0.627-0.113,1.357-0.4,1.838-0.302 c0.1,0.34-1.123,0.114-0.482,0.416l-0.743-0.13c0.568,0.536-0.452-0.037,0.07,0.536c0.978,0.098,1.094-0.173,2.07-0.074 c0.22-0.189-0.073-0.279,0.147-0.468c1.387-0.339,1.092,0.854,2.111,0.402c0.264-0.226,0.366-0.656,1.092-0.429l-0.248,0.384 c0.947,0.038,0.541-0.552,1.532-0.294c-0.176,0.151-0.744,0.127-0.601,0.173c0.643,0.303,0.454-0.218,0.948-0.218l0.102,0.34 c1.008-0.054,2.119-0.299,3.235-0.361c-0.062,0.101-0.253,0.208,0.008,0.312c1.408-0.17,3.006,0.042,4.365,0.243l0.519-0.294 c0.121,0.003,0.224,0.133,0.093,0.19c0.529,0.111,0.027-0.186,0.282-0.302c0.301-0.021,0.398,0.169,0.207,0.257 c0.934-0.249,2.661-0.536,3.645-0.222l-0.192,0.087c0.766,0.119,0.865-0.602,1.576-0.328l-0.136,0.052 c1.663,0.127,3.502-0.142,4.771,0.301c0.241-0.423,1.646,0.189,1.753-0.401c0.95,0.292,0.678,0.398,2.016,0.594 c0.357,0.027,0.532-0.368,0.974-0.43l0.011,0.308l0.6-0.323l0.319,0.369l0.414-0.079c-0.165-0.018-0.351-0.138-0.326-0.227 c0.647-0.14,1.578,0.215,1.594,0.373l1.531-0.261c-0.034,0.124-0.29,0.167-0.493,0.246c0.817-0.315,0.148,0.325,0.897,0.036 c-0.1-0.07,0.054-0.184,0.071-0.246c0.373,0.186,1.223,0.188,1.852,0.109l-0.121,0.212c1.136,0.054,2.394-0.102,3.669-0.098 c-0.457-0.099-0.352-0.467,0.022-0.503l0.149,0.326c0.241-0.202-0.39-0.123,0.105-0.37c0.476,0.038,0.32,0.37,0.047,0.477 l0.579-0.113c0.034,0.097-0.102,0.149-0.137,0.273c0.237-0.202,0.999,0.327,1.342-0.024l0.033,0.097 c1.274,0.003,1.852-0.109,2.89-0.126c0.02-0.281,0.426-0.219,0.735-0.446c0.763,0.09,1.609,0.311,2.528,0.287 c0.646-0.14,0.189-0.238,0.479-0.405c0.047,0.256,0.965,0.232,0.489,0.416c1.103-0.042,1.409-0.051,2.804-0.259 c-0.151-0.105-0.322-0.15-0.233-0.238c0.253-0.042,0.576,0.107,0.54,0.23L84.1,26.471c1.566-0.384,3.614,0.747,4.861,0.213 l-0.07,0.026l1.293-0.278c0.595,0.044-0.357,0.192,0.083,0.351c1.395-0.427,2.204,0.062,3.352-0.223 c0.889,0.756,3.155-0.053,4.355,0.429l-0.069-0.178c0.31-0.174,0.375,0.102,0.604,0.143c-0.032-0.138-0.337-0.16-0.144-0.257 c2.627-0.215,5.423,0.26,8.117,0.421c0.985,0.048,0.559-0.921,1.801-0.496l-0.353,0.33c1.988-0.396,4.065,0.014,6.012-0.323 c-0.116,0.076-0.119,0.175-0.309,0.174c0.411,0.24,1.52,0.012,1.527-0.184c0.303,0.022,0.07,0.177,0.257,0.277 c0.412,0.142,1.035-0.306,1.254-0.068c0.037,0.039-0.116,0.078-0.191,0.096c0.269-0.116,1.252,0.03,0.995-0.247 c0.731,0.132,1.397-0.123,1.98,0.041c0.38-0.31,1.25,0.149,1.371-0.289c-0.052,0.452,1.281,0.365,1.743,0.152 c-0.155,0.137,0.402,0.142,0.22,0.331c0.527-0.006,1.01-0.09,0.918-0.323c0.971,0.541,1.952-0.436,2.499,0.258 c1.566-0.243,3.015-0.408,4.423-0.513c-0.051,0.451-1.557,0.045-1.496,0.518c1.336-0.186,2.107-0.573,3.432-0.464 c0.343,0.062-0.195,0.196-0.311,0.273c1.335-0.186,2.581,0.041,3.769-0.205c-0.003,0.042-0.131,0.088-0.253,0.122 c0.234-0.015,0.544,0.066,0.518-0.139l-0.228,0.056c-0.374-0.298,0.93-0.622,0.972-0.779c-0.397,0.588,1.173,0.148,0.542,0.89 c0.154-0.039,0.347-0.136,0.312-0.273c0.229,0.04,0.301,0.12,0.069,0.276c0.839-0.112,0.541-0.33,1.3-0.325 c-0.003,0.099-0.156,0.138-0.235,0.254c0.385-0.193,0.771-0.387,1.413-0.303c-0.039,0.06,0.036,0.138-0.156,0.136 c1.103-0.03,1.879-0.515,3.089-0.329c-0.357,0.431,0.411,0.142,0.476,0.515l0.65-0.111l-0.261-0.181 c0.57,0.006,1.073-0.266,1.563-0.143l-0.423,0.154l1.068-0.071l-0.604-0.142c0.576-0.192-0.062-0.472,0.697-0.368 c-0.154,0.038,0.57,0.005,0.867,0.225c0,0-0.002,0-0.002,0.001c0.282-0.119,0.572-0.244,0.993-0.151 c0.109,0.119-0.088,0.413-0.017,0.492c0.278-0.312,1.334-0.086,1.686-0.419c-0.117,0.078-0.124,0.274-0.085,0.314l0.233-0.254 c0.264,0.081,0.303,0.12,0.26,0.277c0.794,0.046-0.252-0.474,0.69-0.269c-0.074,0.021-0.039,0.059-0.193,0.097 c0.946,0.106,1.828-0.161,2.698-0.036c0.257,0.376-0.76,0.092-0.466,0.409c1.254-0.068,2.596-0.45,3.809-0.362l-0.226-0.042 c0.168-0.53,0.904,0.262,1.517,0.012c-0.15,0.039-0.197,0.294-0.156,0.235c0.831,0.085,1.699-0.13,2.958-0.297l-0.156,0.136 c0.49,0.122,1.289,0.07,1.818,0.132c0.157-0.136,0.459-0.114,0.276-0.312c1.631,0.776,3.111-0.416,4.558,0.23 c-0.173,0.002-0.412,0.119-0.275,0.12l1.233-0.126c-0.098-0.231-0.162-0.14-0.421-0.32c0.156-0.137,0.504-0.243,0.809-0.243 c-0.554,0.153,0.005,0.371,0.244,0.5c-0.04-0.071,0.042-0.149,0.022-0.221c0.644,0.411,0.108-0.465,0.987-0.188l-0.047,0.121 c0.329-0.062,0.632-0.222,0.987-0.188c0.147,0.267-0.35,0.125-0.373,0.345c0.498-0.015,0.983-0.506,1.434-0.24 c-0.212,0.075-0.516,0.076-0.728,0.15c0.491,0.314,0.548,0.234,0.913,0.284l-0.036-0.007l0.844,0.142l-0.215-0.085 c0.624-0.697,1.27-0.127,2.11-0.584c-0.816,0.432-0.135,0.25-0.198,0.553c0.214,0.084,0.541,0.179,0.448,0.264 c0.397-0.244,0.663,0.193,1.223-0.165c0.025,0.098,0.425,0.01,0.335,0.254c0.516-0.077-0.122-0.17-0.079-0.292 c0.796-0.333,1.87,0.404,3.015-0.053c0.987-0.188,1.169-0.517,2.085-0.681c0.309,0.156-0.253,0.355-0.253,0.355 c0.499,0.144,0.874,0.117,1.344,0.005c-0.095,0.085,0.003,0.157,0.146,0.267c0.377-0.026,0.252-0.355,0.749-0.211 c-0.085,0.109-0.195,0.283-0.377,0.392c0.444-0.09,0.883-0.272,1.343-0.36c0.122,0.17-0.278,0.258-0.44,0.369 c0.517-0.077,1.34-0.154,1.499-0.423l-0.332-0.096c0.188-0.013,0.097,0.231-0.042,0.28c-0.443,0.211-0.639-0.093-0.664-0.191 l0.328-0.062c-0.337-0.572-1.316,0.092-1.975,0.059l0.275-0.416l-0.677,0.345c-0.144-0.108-0.242-0.341,0.083-0.403 c-0.473-0.206-0.419,0.148-0.825-0.081c-0.045-0.036-0.025-0.056,0.017-0.072l-0.462,0.124c0.091-0.087-0.077-0.294,0.207-0.234 c-0.829-0.24-1.337,0.312-1.649-0.003l0.069-0.026c-1.15,0.141-0.111,0.305-0.974,0.664l-0.581-0.753l-0.113,0.305 c-0.119-0.011-0.354-0.034-0.31-0.156c-0.442,0.209,0.075,0.133-0.181,0.33c-0.571-0.278-1.575,0.13-1.704-0.356 c-0.205,0.232,0.546,0.179-0.064,0.34c-0.174-0.523-0.705,0.09-1.227-0.15c0.16-0.27,0.655-0.127,0.132-0.368 c-0.315,0.456-1.016-0.1-1.456-0.013c-0.021,0.363-0.957,0.152-1.696,0.273c0.047-0.122-1.39-0.2-2.077-0.331l0.02-0.061 c-0.133,0.367-0.842,0.298-1.358,0.374c0.02-0.22,0.113-0.306,0.393-0.405l-0.485,0.002c-0.114,0.118-0.266,0.18-0.581,0.222 l0.122-0.274c-0.646,0.015-1.3,0.323-2.131,0.14c-0.047,0.256,0.661,0.713-0.218,0.884c-0.033-0.138-0.065-0.375,0.165-0.432 c-0.075,0.018-0.269,0.115-0.42,0.056l0.351-0.233c-0.378-0.102-0.198,0.195-0.5,0.173c0.006-0.198-0.224-0.141-0.181-0.298 c0.077-0.019,0.264,0.081,0.38,0.004c-0.341-0.035-0.754-0.152-0.89-0.302c0.03,0.112,0,0.266-0.25,0.292 c-0.646,0.014-0.221-0.237-0.598-0.339c-0.156,0.137-0.568-0.005-0.579,0.29c-0.189-0.001-0.224-0.139-0.297-0.219 c-0.334,0.13-1.561,0.037-1.184,0.351l0.086,0.021c-0.016,0.006-0.035,0.006-0.055,0.013c0.003,0,0,0,0.003,0h-0.003 c-1.095,0.294-2.276-0.167-3.363-0.041l0.002-0.099c-0.649,0.113-1.444,0.067-1.908,0.279c-0.192,0-0.453-0.18-0.371-0.298 c-0.496,0.074-0.552,0.185-1.268,0.022c0.499-0.172-0.172-0.153,0.511-0.126c-0.644-0.085-0.79-0.243-1.482,0.027 c0.236-0.253-0.485-0.319-0.792-0.243l0.452,0.181c-0.344,0.037-0.646,0.014-0.952-0.007l0.165-0.333 c-1.319-0.405-2.378,0.689-3.382,0.011c-0.349,0.233,0.716,0.164,0.404,0.436c-0.607-0.045-1.239-0.522-1.429-0.523 c-0.831-0.184-0.775,0.486-1.645,0.36c0.111,0.118,0.216,0.435-0.434,0.547c-0.607-0.044-0.746-0.498-0.363-0.593 c0.146-0.01,0.216,0.028,0.21,0.068c0.196-0.043,0.454-0.094,0.213-0.223l-0.079,0.119c-0.301-0.121-1.136-0.108-0.94-0.303 c-0.459,0.113-0.196,0.195,0.144,0.256c-0.779-0.172-1.217-0.005-2.018-0.121c0.127,0.065,0.245,0.205,0.118,0.204 c-1.176-0.147-0.518,0.225-1.314,0.277c-0.453-0.181,0.162-0.432-0.64-0.28c-0.49-0.122-0.104-0.315,0.091-0.412 c-0.731,0.229-1.365-0.15-1.782-0.192l0.385-0.096c-0.23,0.057-0.419,0.055-0.61,0.055l0.22,0.237 c-0.226-0.042-0.417-0.042-0.413-0.141c-0.233,0.156,0.178,0.395-0.284,0.607c-0.301-0.121-0.917,0.129-1.021-0.186 c0.947,0.107-0.105-0.316,0.697-0.367c-0.155,0.038-0.343,0.036-0.57-0.006c-0.034-0.035,0.032-0.065,0.094-0.083 c-0.906-0.281-0.417,0.356-1.356,0.349c0.119-0.177-0.218-0.337-0.371-0.299c0.379,0.004,0.181,0.296-0.166,0.432 c-0.602-0.138-0.655,0.103-0.97,0.087l0.36,0.065c-0.122,0.177-0.423,0.154-0.843,0.21c-0.036-0.138,0.381-0.095,0.231-0.156 c-0.466,0.312-1.054-0.323-1.704-0.113c-0.301-0.12-0.029-0.333-0.294-0.415c-0.729,0.23-0.789-0.243-1.555-0.053 c0.221,0.239,0.259,0.18-0.28,0.413l1.259-0.168l-0.808,0.347c0.38,0.003,0.802-0.15,1.029-0.109 c-0.385,0.195-0.345,0.135-0.164,0.333c-0.52-0.358-1.031,0.208-1.632-0.033l0.018-0.591c-0.904-0.263-1.605,0.303-2.779,0.154 l0.377,0.103c-0.157,0.235-0.724,0.033-1.104,0.128c0.035-0.198-0.202-0.269-0.364-0.392c0.02,0.147-0.859-0.013-0.965,0.381 l-0.524-0.26c-0.947-0.107-1.081,0.562-1.992,0.495c0.274-0.215-0.14-0.354,0.471-0.508c-0.304-0.002-0.577-0.038-0.582,0.099 c-0.178-0.123-0.843,0.266-1.123,0.079c-0.128,0.087-0.17,0.294-0.511,0.277c-0.037-0.04,0.001-0.097,0.001-0.097 c-0.001,0.097-0.534,0.133-0.236,0.351c-0.937-0.616-2.618,0.045-3.433-0.484c-0.664,0.066-1.463,0.13-2.065,0.144 c0.039-0.059,0.002-0.098,0.116-0.078c-0.831-0.184-0.511,0.567-1.456,0.362c-0.483-0.319,0.502-0.173,0.201-0.293 c-0.131-0.65-1.141,0.089-1.778-0.291l0.154-0.038c-0.486-0.221-1.187,0.246-1.981,0.2c0,0,0.039-0.057,0.005-0.098 c-0.543,0.331-1.572,0.441-2.337,0.533c0.238-0.254,0.347-0.135,0.202-0.393c-0.343,0.037,0.1,0.415-0.584,0.487 c-0.222-0.139-0.716-0.261-0.781-0.536l0.645-0.015c-0.331-0.357-0.835,0.012-1.175-0.05l0.043-0.156 c-0.989,0.051-1.003,0.443-2.065,0.415l0.11,0.118c-0.581,0.389-0.487-0.219-1.066,0.07l-0.175-0.395 c-0.383,0.095-1.342,0.382-2.03,0.456c0.389-0.293,1.194-0.442,1.691-0.616c-0.38-0.003-1.291,0.029-1.489,0.224 c0.153-0.038,0.346-0.135,0.497-0.074c-0.466,0.31-1.079,0.463-1.836,0.456c0.134-0.765-1.973-0.193-2.522-0.787 c-1.339,0.283-2.657-0.121-4.217-0.075c0.553,0.595-0.455,0.017-0.36,0.628c-0.363,0.039-0.502,0.029-0.534-0.01l-1.101-0.365 c-0.261-0.178,0.346-0.135,0.312-0.272c-0.796-0.047-0.334-0.259-0.86-0.422c0.108,0.219-0.277,0.313-0.73,0.23l0.639,0.282 c-1.112,0.325-0.961-0.513-2.082-0.191l0.354-0.192c-0.575,0.113-2.122-0.004-2.685,0.487c-0.102-0.071-0.236-0.238,0.017-0.282 c-1.374-0.074-3.06,0.523-4.128,0.22l0.104-0.149c-0.256,0.043-0.446,0.281-0.767,0.13c0.017-0.062,0.103-0.149-0.015-0.158 c-0.136,0.052-0.681,0.262-1.021,0.175l0.29-0.168c-1.341-0.196-2.058,0.41-3.182,0.512c0.003-0.44-1.052-0.583-1.579-0.655 l0.018-0.062c-1.561-0.054-2.652,0.365-4.097,0.538c-0.897-0.478-3.04-0.2-4.482-0.468c0.22,0.08-0.036,0.343-0.292,0.387 c-0.338-0.089-0.936,0.305-0.882-0.098l0.121,0.008c-0.255-0.396-0.951-0.29-1.494-0.301l-0.09,0.528 c-1.421-0.768-3.722,0.282-4.497-0.406c-0.343,0.132-0.767,0.13-1.107,0.263l0.018-0.283c-0.95-0.072-1.424-0.108-2.598-0.04 l0.239-0.202c-0.662-0.018-0.836,0.816-1.447,0.833l-0.184-0.423c-1.155,0.007-2.325-0.365-3.466,0.019 c0.019-0.062,0.053-0.184,0.24-0.201c-0.544-0.011-2.104-0.286-1.906,0.294c-0.014-0.378-1.192-0.037-1.816,0.13l0.097-0.279 c-0.527,0.356-0.543,0.453-1.279,0.552c-0.174-0.036-0.153-0.223,0.079-0.152c-0.581-0.146-0.453,0.264-1.157,0.115l0.262-0.178 c-0.598-0.021-0.55,0.074-0.879,0.281c-0.376,0.112-1.133-0.07-1.222-0.322c-0.081,0.154-0.408,0.359-0.76,0.286 c-0.047-0.095,0.081-0.154,0.145-0.183c-0.999-0.19-1.486,0.324-2.173,0.05c-0.014-0.092-0.059-0.139-0.116-0.166 c0.794,0.007,1.433,0.022,1.373,0.042c0-0.257-0.641-0.302-0.131-0.657c-0.515,0.194-1.395,0.615-2.02,0.494 c-0.03-0.025-0.06-0.049-0.083-0.089l0.065-0.029c-0.144-0.026-0.273-0.002-0.395,0.042c-0.199-0.042-0.326-0.073-0.518-0.077 c-0.074-0.212-0.735-0.115-1.055-0.125c0.026,0.281-0.392,0.236,0,0.468c-0.051-0.02,0.06-0.034,0.273-0.045 c0.048-0.008,0.105-0.012,0.136-0.029c-0.006,0.008-0.014,0.017-0.022,0.025c0.21-0.008,0.484-0.014,0.795-0.019 c-0.253,0.143-0.516,0.263-0.87,0.107c-0.164,0.181-0.345,0.366-0.446,0.454c-0.437-0.392-1.281-0.604-1.398-0.846 c-0.976,0.158-2.3,0.104-2.913,0.632c-0.278,0.068-0.319-0.151-0.423-0.234c0.16-0.053,0.351-0.045,0.437-0.121 c-0.555,0.135-1.644,0.053-1.777,0.422c-0.699-0.167,0.393-0.34-0.568-0.279l0.13-0.113c-1.891-0.59-3.074,0.942-5.17,0.185 c0.145,0.046,0.218,0.068,0.248,0.13c-2.39-0.334-4.925,0.313-7.283-0.216c-0.67-0.107-0.743,0.129-1.152,0.308l-0.145-0.302 l-0.699,0.348c-0.992,0.255-1.718-0.741-2.973-0.259l0.162,0.203c-0.451-0.038-1.429,0.12-1.353-0.114 c-0.046,0.037-0.148,0.212-0.324,0.106l-0.014-0.158l-1.108,0.271c-0.859-0.114,0.134-0.627-1.119-0.658 c-0.466,0.061-1.327,0.46-1.152,0.566c0.188,0.008,0.48,0.099,0.494,0.257l-0.426,0.082c-0.077,0.466-0.405,0.942,0.641,1.268 l0.729-0.285l0.235,0.226l-0.613,0.014c0.348,0.212,0.569,0.024,0.816-0.105c0.058,0.12,0.161,0.204,0.305,0.249l0.716-0.445 c0.087,0.182-0.321,0.361,0.159,0.462c0.335-0.206-0.321-0.408,0.233-0.544c0.349,0.211,0.247,0.384,0.656,0.203 c0.058,0.12-0.029,0.196-0.191,0.249c0.364-0.144,0.964-0.061,1.152-0.308c0.363,0.261,1.23-0.068,1.194,0.373 c0.114-0.105,0.642-0.346,0.976-0.364c-0.611,0.528,1.252,0.031,1.091,0.597c0.452-0.474,1.634-0.211,2.435-0.474 c-0.045,0.038-0.133,0.114-0.203,0.09c0.451,0.039,0.582,0.182,0.872,0.272c0.058-0.392,0.76-0.481,1.139-0.723 c0.553,0.378-0.336,0.46-0.162,0.823c-0.028-0.318,0.961-0.317,0.772-0.581c0.423,0.234,0.364,0.114,0.582,0.438 c0.074-0.49,0.394-0.083,0.744-0.384c0.612,0.242,0.158,0.459,0.83,0.31C26.511,26.923,25.914,27.096,25.914,27.096z M41.898,26.249c0,0.003,0,0.005,0,0.006c-0.138,0.006-0.255,0.012-0.33,0.016C41.637,26.267,41.732,26.261,41.898,26.249z M43.242,26.245c-0.164-0.011-0.367-0.013-0.583-0.011c-0.047-0.097,0.004-0.197,0.139-0.192 C42.725,26.107,43.041,26.163,43.242,26.245z M40.4,24.297c0.213-0.04,0.284,0.015,0.313,0.073c-0.1,0.005-0.218,0.014-0.372,0.034 c-0.006,0.01-0.019,0.022-0.025,0.034C40.337,24.384,40.36,24.334,40.4,24.297z"/><path d="M40.018,24.665c-0.031,0.006-0.048,0.018-0.088,0.021c0.043,0.025,0.085,0.046,0.127,0.063 c0.026-0.03,0.052-0.059,0.075-0.088C40.094,24.663,40.054,24.663,40.018,24.665z"/><path d="M161.786,25.082l-0.028-0.006c0.024,0.011,0.045,0.022,0.059,0.04C161.799,25.102,161.799,25.093,161.786,25.082z"/><path d="M61.79 26.783L61.788 26.712 61.671 26.774z"/><path d="M169.185,26.047c0.014,0.025,0.042,0.05,0.097,0.072C169.278,26.1,169.236,26.075,169.185,26.047z"/><path d="M172.381,26.11l0.452,0.1C172.637,26.153,172.495,26.126,172.381,26.11z"/><path d="M174.838,26.249c0.031-0.049,0.04-0.086,0.048-0.121c-0.002-0.001-0.003-0.001-0.005-0.002L174.838,26.249z"/><path d="M135.77,26.579c-0.033,0.001-0.066,0.005-0.095,0.013C135.452,26.647,135.604,26.625,135.77,26.579z"/><path d="M147.396,25.923c-0.123,0.051-0.245,0.101-0.374,0.133C147.229,26.077,147.39,26.083,147.396,25.923z"/><path d="M122.787,26.918c0.001-0.002,0-0.002,0.001-0.005c-0.028,0.001-0.052,0-0.08,0L122.787,26.918z"/><path d="M146.481,26.051c0.207,0.056,0.38,0.044,0.541,0.005C146.852,26.037,146.653,26.008,146.481,26.051z"/><path d="M185.488,26.377l0.118,0.011c-0.002-0.019,0.005-0.034,0.014-0.045L185.488,26.377z"/><path d="M185.62,26.343l0.131-0.033C185.691,26.31,185.639,26.312,185.62,26.343z"/><path d="M186.028,26.239l-0.277,0.071C185.847,26.311,185.965,26.319,186.028,26.239z"/><path d="M182.235,26.247l-0.037,0.102C182.218,26.328,182.231,26.295,182.235,26.247z"/><path d="M181.246,26.276c0.236,0.023,0.592,0.217,0.921,0.154l0.031-0.081C182.043,26.5,181.47,26.104,181.246,26.276z"/><path d="M177.12,25.016l0.828,0.081c-0.145-0.109-0.335-0.255,0.042-0.281C176.946,24.493,178.206,25.06,177.12,25.016z"/><path d="M174.552,24.859c0.445-0.05-0.005-0.158,0.018-0.219C174.288,24.739,174.22,24.764,174.552,24.859z"/><path d="M155.992,24.858l0.045-0.256C155.693,24.639,156.033,24.701,155.992,24.858z"/><path d="M152.444 26.18L152.777 26.339 152.936 26.104z"/><path d="M150.348 24.358L150.497 24.321 149.925 24.414z"/><path d="M119.175,24.449l0.104,0.315C119.511,24.707,119.56,24.353,119.175,24.449z"/><path d="M105.718,24.769c-0.147-0.157-0.525-0.259-0.758-0.104C105.262,24.687,105.564,24.81,105.718,24.769z"/><path d="M65.359 24.256L65.63 24.151 65.12 24.239z"/></g></svg>