<?xml version="1.0" encoding="UTF-8" standalone="no"?><svg xmlns="http://www.w3.org/2000/svg" xmlns:xlink="http://www.w3.org/1999/xlink" fill="#000000" height="2495.6" preserveAspectRatio="xMidYMid meet" version="1" viewBox="0.8 2.2 2498.5 2495.6" width="2498.5" zoomAndPan="magnify"><g fill="#ffffff" id="change1_1"><path d="M152.3,448.8C152.3,448.8,152.3,448.8,152.3,448.8C384.2,397.6,619.7,334.8,849.4,275l231.6-61l6.7-1.8 l-1.8-6.7c-0.2-0.9-0.7-2.3-2-3.5c-1.3-1.3-3.2-2-4.6-2.1c-1.5-0.1-2.3,0.2-2,0.1l-0.2,0.1l-0.9,0.2l-1.8,0.5l-3.6,0.9 c0,0-7.3,1.9-7.3,1.9C940.7,235.1,794.8,272.8,672,304.9C505.8,349,336.3,391.8,172.8,442.4c-6.9,1.9-13.8,3.8-20.7,5.8 L152.3,448.8z M1080.7,213.5c0.3-0.1,0,0.1-0.8,0.2c0.3-0.1,0.6-0.2,0.6-0.2L1080.7,213.5z"/><path d="M813.5,375.4C813.5,375.4,813.5,375.4,813.5,375.4C813.5,375.4,813.5,375.4,813.5,375.4 c231.9-51.1,467.3-113.9,697.1-173.7l231.6-61l6.7-1.8l-1.8-6.7c-0.2-0.9-0.7-2.3-2.1-3.6c-1.3-1.3-3.3-2-4.7-2.1 c-1.6-0.1-2.3,0.2-2.1,0.2l-0.2,0.1l-0.9,0.2l-1.8,0.5l-3.6,0.9l-7.2,1.9c-122.7,31.5-268.6,69.2-391.3,101.2 c-166.2,44.1-335.6,86.9-499.1,137.5c-6.9,1.9-13.8,3.8-20.7,5.8L813.5,375.4C813.5,375.5,813.5,375.4,813.5,375.4L813.5,375.4 C813.5,375.4,813.5,375.4,813.5,375.4z M1742,140.1c0.3-0.1-0.1,0.1-1.1,0.3c0.1,0,0.8-0.2,0.8-0.2L1742,140.1z"/><path d="M1,645.6C1,645.6,1.1,645.6,1,645.6c231.9-51.2,467.3-113.9,697.1-173.7l231.6-61l6.7-1.8l-1.8-6.7 c-0.2-0.9-0.7-2.3-2.1-3.6c-1.3-1.3-3.3-2-4.7-2.1c-1.6-0.1-2.3,0.2-2.1,0.2l-0.2,0.1l-0.9,0.2l-1.8,0.5l-3.6,0.9 c0,0-7.2,1.9-7.2,1.9C789.3,432,643.4,469.7,520.7,501.7C354.5,545.8,185,588.7,21.5,639.2c-6.9,1.9-13.8,3.8-20.7,5.8L1,645.6z M929.6,410.3c0.3-0.1-0.1,0.1-1.1,0.3c0.1,0,0.8-0.2,0.8-0.2L929.6,410.3z"/><path d="M669,529.5l0.2,0.6c0,0,0,0,0,0C901,479,1136.5,416.2,1366.3,356.4l231.6-61l6.7-1.8l-1.8-6.7 c-0.2-0.9-0.7-2.3-2.1-3.6c-1.3-1.3-3.3-2-4.7-2.1c-1.6-0.1-2.3,0.2-2.1,0.2l-0.2,0.1l-0.9,0.2l-1.8,0.5l-3.6,0.9l-7.2,1.9 c-122.7,31.5-268.6,69.2-391.3,101.2c-166.2,44.1-335.6,86.9-499.1,137.5C682.8,525.7,675.9,527.6,669,529.5z M1597.7,294.8 c0.3-0.1-0.1,0.1-1.1,0.3c0.1,0,0.8-0.2,0.8-0.2L1597.7,294.8z"/><path d="M273.4,779.5L273.4,779.5L273.4,779.5L273.4,779.5L273.4,779.5C273.4,779.5,273.4,779.5,273.4,779.5 c231.9-51.2,467.3-113.9,697.1-173.7l231.6-61l6.7-1.8l-1.8-6.7c-0.2-0.9-0.7-2.3-2-3.5c-1.3-1.3-3.2-2-4.6-2.1 c-1.5-0.1-2.3,0.2-2,0.1l-0.2,0.1l-0.9,0.2l-1.8,0.5l-3.6,0.9c0,0-7.3,1.9-7.3,1.9c-122.7,31.5-268.7,69.2-391.5,101.2 c-166.2,44.1-335.6,86.9-499.1,137.5c-6.9,1.9-13.8,3.8-20.7,5.8L273.4,779.5L273.4,779.5L273.4,779.5z M1201.7,544.2 c0.3-0.1,0,0.1-0.8,0.2c0.3-0.1,0.6-0.2,0.6-0.2L1201.7,544.2z"/><path d="M1851.8,293.2l-1.8,0.5l-3.6,0.9l-7.2,1.9c-122.7,31.5-268.6,69.2-391.3,101.2 c-166.2,44.1-335.6,86.9-499.1,137.5c-6.9,1.9-13.8,3.8-20.7,5.8l0.2,0.6c0,0,0,0,0,0c0,0,0,0,0,0c0,0,0,0,0,0c0,0,0,0,0,0 c0,0,0,0,0,0c231.9-51.1,467.3-113.9,697.1-173.7l231.6-61l6.7-1.8l-1.8-6.7c-0.2-0.9-0.7-2.3-2.1-3.6c-1.3-1.3-3.3-2-4.7-2.1 c-1.6-0.1-2.3,0.2-2.1,0.2l-0.2,0.1L1851.8,293.2z M1856.6,306.2c0.3-0.1-0.1,0.1-1.1,0.3l0.8-0.2L1856.6,306.2z"/><path d="M1048.6,250.5l0.2,0.6C1280.6,200,1516,137.2,1745.8,77.4l231.6-61l6.7-1.8l-1.8-6.7c-0.2-0.9-0.7-2.3-2-3.5 c-1.3-1.3-3.2-2-4.6-2.1c-1.5-0.1-2.3,0.2-2,0.1l-0.2,0.1l-0.9,0.2l-1.8,0.5l-3.6,0.9l-7.3,1.9c-122.7,31.5-268.7,69.2-391.5,101.2 c-166.2,44.1-335.6,86.9-499.1,137.5C1062.3,246.7,1055.4,248.6,1048.6,250.5z M1977.1,15.8c0.3-0.1,0,0.1-0.8,0.2 c0.3-0.1,0.6-0.2,0.6-0.2L1977.1,15.8z"/><path d="M860.3,135.7l-1.7,0.4l-3.4,0.9c0,0-6.7,1.7-6.7,1.7c-114.2,29.3-249.9,64.4-364.1,94.2 c-154.6,41-312.2,80.9-464.3,127.9c-6.4,1.8-12.8,3.6-19.2,5.4l0.1,0.5c0,0,0,0,0,0c0,0,0,0,0,0c0,0,0,0,0,0c0,0,0,0,0,0 c0,0,0,0,0,0c215.7-47.6,434.7-106,648.4-161.6l215.4-56.7l6.2-1.6l-1.6-6.2c-0.2-0.8-0.7-2.1-1.9-3.3c-1.2-1.2-3-1.9-4.3-1.9 c-1.5-0.1-2,0.2-1.8,0.1l-0.2,0.1L860.3,135.7z M864.6,147.9c0.3-0.1,0,0.1-0.7,0.2c0.2-0.1,0.5-0.1,0.5-0.1L864.6,147.9z"/><path d="M1730.4,804.4C1730.4,804.4,1730.4,804.4,1730.4,804.4c172.3-38,347.2-84.7,517.9-129.1l172-45.3l4.9-1.3 l-1.3-4.9c-0.2-0.7-0.6-1.7-1.5-2.6c-0.9-1-2.4-1.5-3.4-1.5c-1.2,0-1.6,0.1-1.5,0.1l-0.2,0l-0.7,0.2l-1.3,0.3l-2.7,0.7l-5.4,1.4 c-91.2,23.4-199.6,51.4-290.8,75.2c-123.5,32.8-249.4,64.6-370.8,102.1c-5.1,1.4-10.2,2.8-15.3,4.3L1730.4,804.4z M2420,629.6 c0.2-0.1,0,0-0.6,0.1l0.4-0.1L2420,629.6z"/><path d="M58.5,1824.1C58.5,1824.1,58.5,1824.1,58.5,1824.1C58.5,1824.1,58.5,1824.1,58.5,1824.1 c172.3-38,347.2-84.6,517.9-129.1l172-45.3l5-1.3l-1.3-4.9c-0.2-0.7-0.6-1.7-1.5-2.6c-1-1-2.5-1.5-3.5-1.5c-1.2,0-1.7,0.2-1.5,0.1 l-0.2,0l-0.7,0.2l-1.3,0.3l-2.7,0.7l-5.4,1.4c-91.2,23.4-199.5,51.4-290.7,75.2c-123.5,32.8-249.3,64.6-370.8,102.2 c-5.1,1.4-10.2,2.9-15.3,4.3L58.5,1824.1C58.5,1824.1,58.5,1824.1,58.5,1824.1C58.5,1824.1,58.5,1824.1,58.5,1824.1 C58.5,1824.1,58.5,1824.1,58.5,1824.1z M748.3,1649.3c0.2-0.1,0,0.1-0.8,0.2c0.1,0,0.6-0.2,0.6-0.2L748.3,1649.3z"/><path d="M703.4,2065.1l218.3-57.5l6.3-1.7l-1.7-6.3c-0.2-0.9-0.7-2.1-1.9-3.3c-1.2-1.2-3-1.9-4.3-2 c-1.5-0.1-2.1,0.2-1.9,0.1l-0.2,0.1l-0.9,0.2l-1.7,0.4l-3.4,0.9l-6.8,1.8c-115.7,29.7-253.3,65.2-369.1,95.5 c-156.7,41.6-316.4,82-470.6,129.6c-6.5,1.8-13,3.6-19.5,5.5l0.1,0.6c0,0,0,0,0,0C264.7,2180.7,486.7,2121.5,703.4,2065.1z M921.4,2007.1c0.3-0.1,0,0.1-0.8,0.2c0.3-0.1,0.6-0.1,0.6-0.1L921.4,2007.1z"/><path d="M586.1,2183C586.1,2183,586.1,2183,586.1,2183C586.1,2183,586.1,2183,586.1,2183 c238.2-52.5,480-117,716.1-178.5l237.9-62.7l6.8-1.8l-1.8-6.8c-0.2-0.9-0.8-2.3-2.1-3.6c-1.3-1.3-3.3-2.1-4.7-2.1 c-1.6-0.1-2.3,0.2-2.1,0.1l-0.2,0.1l-0.9,0.2l-1.9,0.5l-3.7,1c0,0-7.4,1.9-7.4,1.9c-126.1,32.4-276,71.1-402.1,104 c-170.7,45.3-344.8,89.3-512.7,141.3c-7.1,2-14.2,3.9-21.2,5.9L586.1,2183C586.1,2183,586.1,2183,586.1,2183 C586.1,2183,586.1,2183,586.1,2183C586.1,2183,586.1,2183,586.1,2183z M1539.7,1941.3c0.3-0.1,0,0.1-0.8,0.2 c0.3-0.1,0.6-0.2,0.6-0.2L1539.7,1941.3z"/><path d="M2358.8,1805.3c-1.3-1.3-3.4-2.1-4.8-2.1c-1.6-0.1-2.3,0.2-2.1,0.2l-0.2,0.1l-0.9,0.2l-1.9,0.5l-3.7,1 l-7.4,1.9c-126,32.3-275.9,71-402,104c-170.7,45.3-344.8,89.3-512.7,141.2c-7.1,2-14.2,3.9-21.2,5.9l0.2,0.6 c238.2-52.5,480.1-117,716.1-178.5l237.9-62.7l6.9-1.8l-1.8-6.8C2360.7,1808,2360.2,1806.6,2358.8,1805.3z M2354.7,1817.2 c0.1,0,0.8-0.2,0.8-0.2l0.2-0.1C2356.1,1816.8,2355.7,1817.1,2354.7,1817.2z"/><path d="M423.4,2360.1c238.2-52.5,480-117,716.1-178.5l237.9-62.7l6.9-1.8l-1.8-6.8c-0.2-0.9-0.8-2.3-2.1-3.7 c-1.3-1.3-3.4-2.1-4.8-2.1c-1.6-0.1-2.3,0.2-2.1,0.2l-0.2,0.1l-0.9,0.2l-1.9,0.5l-3.7,1c0,0-7.4,1.9-7.4,1.9 c-126,32.3-275.9,71-402,104c-170.7,45.3-344.8,89.3-512.7,141.2c-7.1,2-14.2,3.9-21.2,5.9L423.4,2360.1 C423.4,2360.1,423.4,2360.1,423.4,2360.1C423.4,2360.1,423.4,2360.1,423.4,2360.1L423.4,2360.1 C423.4,2360.1,423.4,2360.1,423.4,2360.1C423.4,2360.1,423.4,2360.1,423.4,2360.1L423.4,2360.1 C423.4,2360.1,423.4,2360.1,423.4,2360.1z M1377.1,2118.4c0.3-0.1-0.1,0.1-1.1,0.3c0.1,0,0.8-0.2,0.8-0.2L1377.1,2118.4z"/><path d="M2092.8,1986.4l-1.9,0.5l-3.7,1l-7.4,1.9c-126,32.3-275.9,71-402,104C1507,2139,1333,2183,1165.1,2234.9 c-7.1,2-14.2,3.9-21.2,5.9l0.2,0.6l0,0l0,0l0,0l0,0l0,0l0,0c0,0,0,0,0,0c238.2-52.5,480-117,716.1-178.5l237.9-62.7l6.9-1.8 l-1.8-6.8c-0.2-0.9-0.8-2.3-2.1-3.7c-1.3-1.3-3.4-2.1-4.8-2.1c-1.6-0.1-2.3,0.2-2.1,0.2l-0.2,0.1L2092.8,1986.4z M2097.8,1999.7 c0.3-0.1-0.1,0.1-1.1,0.3c0.1,0,0.8-0.2,0.8-0.2L2097.8,1999.7z"/><path d="M1711.9,2244.3c-1.3-1.3-3.3-2.1-4.7-2.1c-1.6-0.1-2.3,0.2-2.1,0.1l-0.2,0.1l-0.9,0.2l-1.9,0.5l-3.7,1 c0,0-7.4,1.9-7.4,1.9c-126.1,32.4-276,71.1-402.1,104c-170.7,45.3-344.8,89.3-512.7,141.3c-7.1,2-14.2,3.9-21.2,5.9l0.2,0.6 c0,0,0,0,0,0c0,0,0,0,0,0c0,0,0,0,0,0c0,0,0,0,0,0c0,0,0,0,0,0c238.2-52.5,480.1-117,716.1-178.5l237.9-62.7l6.8-1.8l-1.8-6.8 C1713.8,2247,1713.2,2245.6,1711.9,2244.3z M1707.8,2256.2c0.3-0.1,0.6-0.2,0.6-0.2l0.2-0.1 C1709,2255.9,1708.7,2256.1,1707.8,2256.2z"/><path d="M2302.5,2010.8c-1.3-1.3-3.4-2.1-4.8-2.1c-1.6-0.1-2.3,0.2-2.1,0.2l-0.2,0.1l-0.9,0.2l-1.9,0.5l-3.7,1 l-7.4,1.9c-126,32.3-275.9,71-402,104c-170.7,45.3-344.8,89.3-512.7,141.2c-7.1,2-14.2,3.9-21.2,5.9l0.2,0.6 c238.2-52.5,480.1-117,716.1-178.5l237.9-62.7l6.9-1.8l-1.8-6.8C2304.3,2013.5,2303.8,2012.1,2302.5,2010.8z M2298.3,2022.8 c0.1,0,0.8-0.2,0.8-0.2l0.2-0.1C2299.7,2022.4,2299.3,2022.6,2298.3,2022.8z"/><path d="M2495.2,1583c-1.3-1.3-3.3-2.1-4.7-2.1c-1.6-0.1-2.3,0.2-2.1,0.1l-0.2,0.1l-0.9,0.2l-1.9,0.5l-3.7,1l-7.4,1.9 c-126.1,32.4-276,71.1-402.1,104c-170.7,45.3-344.8,89.3-512.7,141.3c-7.1,2-14.2,3.9-21.2,5.9l0.2,0.6c0,0,0,0,0,0c0,0,0,0,0,0 c0,0,0,0,0,0c0,0,0,0,0,0c0,0,0,0,0,0c238.2-52.5,480.1-117,716.1-178.5l237.9-62.7l6.8-1.8l-1.8-6.8 C2497.1,1585.7,2496.5,1584.3,2495.2,1583z M2491.1,1594.9c0.3-0.1,0.6-0.2,0.6-0.2l0.2-0.1 C2492.3,1594.6,2491.9,1594.8,2491.1,1594.9z"/></g></svg>